<mxfile host="app.diagrams.net" modified="2021-01-22T07:39:15.897Z" agent="5.0 (Windows NT 6.1; WOW64) AppleWebKit/537.36 (KHTML, like Gecko) Chrome/81.0.4044.9 Safari/537.36" etag="nRvYmdjj0lbzjZTgFoEH" version="14.2.6" type="github">
  <diagram id="rh5iIk8yzMehf3GtayyR" name="第 1 页">
    <mxGraphModel dx="760" dy="401" grid="1" gridSize="10" guides="1" tooltips="1" connect="1" arrows="1" fold="1" page="1" pageScale="1" pageWidth="827" pageHeight="1169" math="0" shadow="0">
      <root>
        <mxCell id="0" />
        <mxCell id="1" parent="0" />
        <mxCell id="8Kvj6WDCpTSl8Z4WFa7p-1" value="" style="endArrow=none;html=1;" edge="1" parent="1">
          <mxGeometry width="50" height="50" relative="1" as="geometry">
            <mxPoint x="190" y="220" as="sourcePoint" />
            <mxPoint x="610" y="220" as="targetPoint" />
          </mxGeometry>
        </mxCell>
        <mxCell id="8Kvj6WDCpTSl8Z4WFa7p-2" value="" style="endArrow=none;html=1;" edge="1" parent="1">
          <mxGeometry width="50" height="50" relative="1" as="geometry">
            <mxPoint x="250" y="280" as="sourcePoint" />
            <mxPoint x="250" y="220" as="targetPoint" />
          </mxGeometry>
        </mxCell>
        <mxCell id="8Kvj6WDCpTSl8Z4WFa7p-3" value="调压器" style="rounded=1;whiteSpace=wrap;html=1;" vertex="1" parent="1">
          <mxGeometry x="200" y="280" width="120" height="30" as="geometry" />
        </mxCell>
        <mxCell id="8Kvj6WDCpTSl8Z4WFa7p-5" value="" style="endArrow=none;html=1;" edge="1" parent="1">
          <mxGeometry width="50" height="50" relative="1" as="geometry">
            <mxPoint x="190" y="240" as="sourcePoint" />
            <mxPoint x="610" y="240" as="targetPoint" />
          </mxGeometry>
        </mxCell>
        <mxCell id="8Kvj6WDCpTSl8Z4WFa7p-6" value="" style="endArrow=none;html=1;" edge="1" parent="1">
          <mxGeometry width="50" height="50" relative="1" as="geometry">
            <mxPoint x="280" y="240" as="sourcePoint" />
            <mxPoint x="280" y="280" as="targetPoint" />
          </mxGeometry>
        </mxCell>
        <mxCell id="8Kvj6WDCpTSl8Z4WFa7p-7" style="edgeStyle=orthogonalEdgeStyle;rounded=0;orthogonalLoop=1;jettySize=auto;html=1;exitX=0.5;exitY=1;exitDx=0;exitDy=0;strokeColor=#050DFF;" edge="1" parent="1" source="8Kvj6WDCpTSl8Z4WFa7p-3" target="8Kvj6WDCpTSl8Z4WFa7p-3">
          <mxGeometry relative="1" as="geometry" />
        </mxCell>
        <mxCell id="8Kvj6WDCpTSl8Z4WFa7p-8" value="断路器" style="whiteSpace=wrap;html=1;rounded=1;" vertex="1" parent="1">
          <mxGeometry x="200" y="370" width="120" height="35" as="geometry" />
        </mxCell>
        <mxCell id="8Kvj6WDCpTSl8Z4WFa7p-11" value="" style="endArrow=none;html=1;" edge="1" parent="1">
          <mxGeometry width="50" height="50" relative="1" as="geometry">
            <mxPoint x="250" y="370" as="sourcePoint" />
            <mxPoint x="250" y="310" as="targetPoint" />
          </mxGeometry>
        </mxCell>
        <mxCell id="8Kvj6WDCpTSl8Z4WFa7p-12" value="" style="endArrow=none;html=1;" edge="1" parent="1">
          <mxGeometry width="50" height="50" relative="1" as="geometry">
            <mxPoint x="280" y="310" as="sourcePoint" />
            <mxPoint x="280" y="370" as="targetPoint" />
          </mxGeometry>
        </mxCell>
        <mxCell id="8Kvj6WDCpTSl8Z4WFa7p-14" value="" style="endArrow=none;html=1;" edge="1" parent="1">
          <mxGeometry width="50" height="50" relative="1" as="geometry">
            <mxPoint x="280" y="405" as="sourcePoint" />
            <mxPoint x="280" y="510" as="targetPoint" />
          </mxGeometry>
        </mxCell>
        <mxCell id="8Kvj6WDCpTSl8Z4WFa7p-15" value="" style="endArrow=none;html=1;" edge="1" parent="1">
          <mxGeometry width="50" height="50" relative="1" as="geometry">
            <mxPoint x="250" y="510" as="sourcePoint" />
            <mxPoint x="250" y="405" as="targetPoint" />
          </mxGeometry>
        </mxCell>
        <mxCell id="8Kvj6WDCpTSl8Z4WFa7p-16" value="" style="endArrow=none;html=1;" edge="1" parent="1">
          <mxGeometry width="50" height="50" relative="1" as="geometry">
            <mxPoint x="400" y="440" as="sourcePoint" />
            <mxPoint x="250" y="440" as="targetPoint" />
          </mxGeometry>
        </mxCell>
        <mxCell id="8Kvj6WDCpTSl8Z4WFa7p-17" value="" style="endArrow=none;html=1;" edge="1" parent="1">
          <mxGeometry width="50" height="50" relative="1" as="geometry">
            <mxPoint x="280" y="464" as="sourcePoint" />
            <mxPoint x="430" y="464" as="targetPoint" />
          </mxGeometry>
        </mxCell>
        <mxCell id="8Kvj6WDCpTSl8Z4WFa7p-18" value="电阻箱" style="whiteSpace=wrap;html=1;rounded=1;" vertex="1" parent="1">
          <mxGeometry x="200" y="510" width="120" height="35" as="geometry" />
        </mxCell>
        <mxCell id="8Kvj6WDCpTSl8Z4WFa7p-19" value="超电设备" style="whiteSpace=wrap;html=1;rounded=1;" vertex="1" parent="1">
          <mxGeometry x="520" y="510" width="100" height="35" as="geometry" />
        </mxCell>
        <mxCell id="8Kvj6WDCpTSl8Z4WFa7p-20" value="" style="endArrow=none;html=1;" edge="1" parent="1">
          <mxGeometry width="50" height="50" relative="1" as="geometry">
            <mxPoint x="430" y="464" as="sourcePoint" />
            <mxPoint x="430" y="510" as="targetPoint" />
          </mxGeometry>
        </mxCell>
        <mxCell id="8Kvj6WDCpTSl8Z4WFa7p-21" value="" style="endArrow=none;html=1;" edge="1" parent="1">
          <mxGeometry width="50" height="50" relative="1" as="geometry">
            <mxPoint x="400" y="510" as="sourcePoint" />
            <mxPoint x="400" y="440" as="targetPoint" />
          </mxGeometry>
        </mxCell>
        <mxCell id="8Kvj6WDCpTSl8Z4WFa7p-22" value="无功发生装置" style="whiteSpace=wrap;html=1;rounded=1;" vertex="1" parent="1">
          <mxGeometry x="354" y="510" width="120" height="35" as="geometry" />
        </mxCell>
        <mxCell id="8Kvj6WDCpTSl8Z4WFa7p-23" value="" style="endArrow=none;html=1;" edge="1" parent="1">
          <mxGeometry width="50" height="50" relative="1" as="geometry">
            <mxPoint x="590" y="354" as="sourcePoint" />
            <mxPoint x="590" y="510" as="targetPoint" />
          </mxGeometry>
        </mxCell>
        <mxCell id="8Kvj6WDCpTSl8Z4WFa7p-24" value="" style="endArrow=none;html=1;" edge="1" parent="1">
          <mxGeometry width="50" height="50" relative="1" as="geometry">
            <mxPoint x="560" y="510" as="sourcePoint" />
            <mxPoint x="560" y="330" as="targetPoint" />
          </mxGeometry>
        </mxCell>
        <mxCell id="8Kvj6WDCpTSl8Z4WFa7p-27" value="" style="endArrow=none;html=1;" edge="1" parent="1">
          <mxGeometry width="50" height="50" relative="1" as="geometry">
            <mxPoint x="560" y="330.0000000000001" as="sourcePoint" />
            <mxPoint x="250" y="330.0000000000001" as="targetPoint" />
          </mxGeometry>
        </mxCell>
        <mxCell id="8Kvj6WDCpTSl8Z4WFa7p-28" value="" style="endArrow=none;html=1;" edge="1" parent="1">
          <mxGeometry width="50" height="50" relative="1" as="geometry">
            <mxPoint x="280" y="354" as="sourcePoint" />
            <mxPoint x="590" y="354" as="targetPoint" />
          </mxGeometry>
        </mxCell>
        <mxCell id="8Kvj6WDCpTSl8Z4WFa7p-36" style="edgeStyle=orthogonalEdgeStyle;rounded=0;orthogonalLoop=1;jettySize=auto;html=1;entryX=0.25;entryY=0;entryDx=0;entryDy=0;strokeColor=#FF3333;" edge="1" parent="1" source="8Kvj6WDCpTSl8Z4WFa7p-33" target="8Kvj6WDCpTSl8Z4WFa7p-19">
          <mxGeometry relative="1" as="geometry" />
        </mxCell>
        <mxCell id="8Kvj6WDCpTSl8Z4WFa7p-33" value="" style="ellipse;whiteSpace=wrap;html=1;fillColor=none;strokeColor=#FF3333;" vertex="1" parent="1">
          <mxGeometry x="224" y="420" width="80" height="10" as="geometry" />
        </mxCell>
        <mxCell id="8Kvj6WDCpTSl8Z4WFa7p-37" value="CT" style="text;html=1;align=center;verticalAlign=middle;resizable=0;points=[];autosize=1;fontColor=#FF3333;" vertex="1" parent="1">
          <mxGeometry x="185" y="415" width="30" height="20" as="geometry" />
        </mxCell>
        <mxCell id="8Kvj6WDCpTSl8Z4WFa7p-38" value="系统" style="text;html=1;align=center;verticalAlign=middle;resizable=0;points=[];autosize=1;fontColor=#FF3333;" vertex="1" parent="1">
          <mxGeometry x="200" y="220" width="40" height="20" as="geometry" />
        </mxCell>
      </root>
    </mxGraphModel>
  </diagram>
</mxfile>
